<svg width="24" height="24" viewBox="0 0 24 24" fill="none" xmlns="http://www.w3.org/2000/svg">
<path d="M11.0008 5.99487L11.0008 15.9949L7.71079 12.7049C7.61783 12.6111 7.50723 12.5368 7.38537 12.486C7.26351 12.4352 7.1328 12.4091 7.00079 12.4091C6.86878 12.4091 6.73807 12.4352 6.61621 12.486C6.49436 12.5368 6.38375 12.6111 6.29079 12.7049C6.10454 12.8922 6 13.1457 6 13.4099C6 13.6741 6.10454 13.9275 6.29079 14.1149L10.5908 18.4049C10.9641 18.7805 11.4712 18.9926 12.0008 18.9949V18.9949C12.5269 18.99 13.0299 18.778 13.4008 18.4049L17.7008 14.1149C17.7934 14.0216 17.8667 13.9111 17.9165 13.7895C17.9664 13.6679 17.9918 13.5377 17.9913 13.4063C17.9909 13.2749 17.9645 13.1449 17.9138 13.0237C17.8631 12.9025 17.789 12.7925 17.6958 12.6999C17.6025 12.6073 17.492 12.534 17.3704 12.4841C17.2488 12.4343 17.1186 12.4089 16.9872 12.4093C16.8558 12.4098 16.7258 12.4361 16.6046 12.4868C16.4834 12.5375 16.3734 12.6116 16.2808 12.7049L13.0008 15.9949L13.0008 5.99487C13.0008 5.72966 12.8954 5.4753 12.7079 5.28777C12.5204 5.10023 12.266 4.99487 12.0008 4.99487C11.7356 4.99487 11.4812 5.10023 11.2937 5.28777C11.1061 5.4753 11.0008 5.72966 11.0008 5.99487Z" fill="#2A2827"/>
</svg>
