<?xml version="1.0" encoding="UTF-8"?>
<svg id="Layer_1" xmlns="http://www.w3.org/2000/svg" version="1.1" viewBox="0 0 500 500">
  <!-- Generator: Adobe Illustrator 30.1.0, SVG Export Plug-In . SVG Version: 2.1.1 Build 136)  -->
  <defs>
    <style>
      .st0 {
        fill: #2a2827;
      }
    </style>
  </defs>
  <path class="st0" d="M189.92,271.59c1.21,5.58,5.85,9.19,11.34,9.19.9,0,1.83-.1,2.77-.3,6.63-1.43,10.57-7.42,9.16-13.92l-23.63-109.24c-1.41-6.5-7.47-10.32-14.11-8.89-6.63,1.43-10.57,7.42-9.16,13.92l23.63,109.24Z"/>
  <path class="st0" d="M265.75,265.41c.91,4.2,3.69,7.34,7.63,8.6,1.22.39,2.48.58,3.75.58,3.1,0,6.19-1.13,8.51-3.23,3.06-2.78,4.3-6.78,3.39-10.99l-29.78-137.65c-1.41-6.5-7.47-10.33-14.11-8.89-6.63,1.43-10.57,7.42-9.16,13.92l29.78,137.66Z"/>
  <path class="st0" d="M392.32,237.61c-5.67-2.26-13.21-.39-16.03,6.65-8.02,20.11-18.32,36.34-30.6,48.23-13.63,13.19-31.71,21.93-55.26,26.71-49.99,10.14-89.29,5.71-120.16-13.57-17.51-10.93-32.14-26.09-42.31-43.84-2.88-5.02-9.65-8.23-16.54-4.28-5.82,3.33-7.66,9.92-4.38,15.66,21.48,37.5,59.22,64.53,100.97,72.31,10.16,1.89,20.83,2.84,32.33,2.84,14.32,0,29.93-1.47,47.46-4.43,28.27-4.77,50.33-13.93,67.44-28.01,17.87-14.7,32.5-36.11,43.47-63.62,2.41-6.05-.28-12.21-6.39-14.65Z"/>
</svg>